<?xml version="1.0" encoding="UTF-8" standalone="no" ?>
<COLLADA xmlns="http://www.collada.org/2005/11/COLLADASchema" version="1.4.1">
  <asset>
    <contributor>
      <author>Assimp</author>
      <authoring_tool>Open Asset Import Library (assimp v5.2.cf7d3637)</authoring_tool>
    </contributor>
    <created>2026-09-18T00:01:31</created>
    <modified>2026-09-18T00:01:31</modified>
    <unit name="meter" meter="1" />
    <up_axis>Y_UP</up_axis>
  </asset>
  <library_images>
  </library_images>
  <library_effects>
    <effect id="Material.001-fx" name="Material.001">
      <profile_COMMON>
        <technique sid="standard">
          <phong>
            <emission>
              <color sid="emission">0   0   0   1</color>
            </emission>
            <diffuse>
              <color sid="diffuse">1   1   1   1</color>
            </diffuse>
            <shininess>
              <float sid="shininess">0</float>
            </shininess>
            <transparency>
              <float sid="transparency">1</float>
            </transparency>
            <index_of_refraction>
              <float sid="index_of_refraction">1</float>
            </index_of_refraction>
          </phong>
        </technique>
      </profile_COMMON>
    </effect>
    <effect id="material_1-fx" name="">
      <profile_COMMON>
        <technique sid="standard">
          <phong>
            <emission>
              <color sid="emission">0   0   0   1</color>
            </emission>
            <diffuse>
              <color sid="diffuse">1   1   1   1</color>
            </diffuse>
            <shininess>
              <float sid="shininess">0</float>
            </shininess>
            <transparency>
              <float sid="transparency">1</float>
            </transparency>
          </phong>
        </technique>
      </profile_COMMON>
    </effect>
  </library_effects>
  <library_materials>
    <material id="Material.001" name="Material.001">
      <instance_effect url="#Material.001-fx"/>
    </material>
    <material id="material_1" name="">
      <instance_effect url="#material_1-fx"/>
    </material>
  </library_materials>
  <library_geometries>
    <geometry id="meshesQ0S" name="meshesQ0S" >
      <mesh>
        <source id="meshesQ0S-positions" name="meshesQ0S-positions">
          <float_array id="meshesQ0S-positions-array" count="831"> 0.714285731 0 -0.714285731 1 0 -0.714285731 1 0 -1 0.714285731 0 -1 -1 0 -0.714285731 -0.714285731 0 -0.714285731 -0.714285731 0 -1 -1 0 -1 -0.428571433 0 -0.714285731 -0.428571433 0 -1 -0.142857134 0 -0.714285731 -0.142857134 0 -1 0.142857134 0 -0.714285731 0.142857134 0 -1 0.428571433 0 -0.714285731 0.428571433 0 -1 -1 0 1 -0.714285731 0 1 -0.714285731 0 0.714285731 -1 0 0.714285731 -0.714285731 0 0.428571433 -1 0 0.428571433 -0.714285731 0 0.142857134 -1 0 0.142857134 -0.714285731 0 -0.142857134 -1 0 -0.142857134 -0.714285731 0 -0.428571433 -1 0 -0.428571433 -0.428571433 0 1 -0.428571433 0 0.714285731 -0.142857134 0 1 -0.142857134 0 0.714285731 0.142857134 0 1 0.142857134 0 0.714285731 0.428571433 0 1 0.428571433 0 0.714285731 0.714285731 0 1 0.714285731 0 0.714285731 1 0 1 1 0 0.714285731 1 0 0.428571433 0.714285731 0 0.428571433 1 0 0.142857134 0.714285731 0 0.142857134 1 0 -0.142857134 0.714285731 0 -0.142857134 1 0 -0.428571433 0.714285731 0 -0.428571433 -0.499643028 0 0.499642968 -0.60877645 0 0.358716428 -0.693232238 0 0.136804268 -0.693232238 0 -0.136804283 -0.60877651 0 -0.358716518 -0.499643087 0 -0.499643087 0.608776391 0 0.358716398 0.499642968 0 0.499642938 0.693232119 0 0.136804268 0.693232119 0 -0.136804253 0.60877645 0 -0.358716428 0.499642968 0 -0.499643028 -0.358716428 0 0.60877645 -0.358716488 0 -0.60877651 -0.136804238 0 0.693232119 -0.136804298 0 -0.693232238 0.136804268 0 0.693232119 0.136804283 0 -0.693232238 0.358716428 0 0.608776391 0.358716428 0 -0.60877645 0.136804268 0 0.693232119 -0.136804238 0 0.693232119 0.693232119 0 -0.136804253 0.693232119 0 0.136804268 -0.499643028 0 0.499642968 -0.60877645 0 0.358716428 -0.136804298 0 -0.693232238 0.136804283 0 -0.693232238 0.60877645 0 -0.358716428 -0.693232238 0 0.136804268 0.358716428 0 0.608776391 0.499642968 0 -0.499643028 -0.693232238 0 -0.136804283 0.358716428 0 -0.60877645 -0.358716428 0 0.60877645 -0.60877651 0 -0.358716518 0.499642968 0 0.499642938 -0.499643087 0 -0.499643087 -0.358716488 0 -0.60877651 0.608776391 0 0.358716398 -0.0607800186 1.83784842 -0.103149548 -0.08465828 1.83784842 -0.0846582502 -0.0773931742 1.87002337 -0.0773931444 -0.0555640757 1.87002337 -0.0942975879 -0.103149548 1.83784842 -0.0607799888 -0.0942975879 1.87002337 -0.0555640459 0.0846582651 1.83784842 -0.0846582353 0.0607800484 1.83784842 -0.103149548 0.0555641055 1.87002337 -0.0942975879 0.0773931742 1.87002337 -0.0773931444 -0.0607800186 1.83784842 0.103149608 -0.0231797583 1.83784842 0.117459595 -0.0211905465 1.87002337 0.107379615 -0.0555640757 1.87002337 0.0942976475 0.0846582651 1.83784842 0.0846582949 0.103149608 1.83784842 0.0607800782 0.0942976475 1.87002337 0.0555641353 0.0773931742 1.87002337 0.077393204 -0.0231797658 1.83784842 -0.117459506 -0.0211905539 1.87002337 -0.107379496 0.117459565 1.83784842 0.0231798254 0.107379556 1.87002337 0.0211906135 0.0231797881 1.83784842 0.117459595 0.0211905763 1.87002337 0.107379615 0.117459565 1.83784842 -0.0231797211 0.107379556 1.87002337 -0.0211905092 -0.103149548 1.83784842 0.0607800782 -0.0846582651 1.83784842 0.0846583247 -0.0773931742 1.87002337 0.0773932338 -0.0942975879 1.87002337 0.0555641353 0.0231797956 1.83784842 -0.117459506 0.0211905837 1.87002337 -0.107379496 0.103149608 1.83784842 -0.0607799888 0.0942976475 1.87002337 -0.0555640459 -0.117459565 1.83784842 0.0231798254 -0.107379556 1.87002337 0.0211906135 0.0607800484 1.83784842 0.103149608 0.0555641055 1.87002337 0.0942976475 -0.117459565 1.83784842 -0.0231797323 -0.107379556 1.87002337 -0.0211905167 0.0942976475 1.87002337 -0.0555640459 0.107379556 1.87002337 -0.0211905092 -0.0942975879 1.87002337 0.0555641353 -0.107379556 1.87002337 0.0211906135 0.0555641055 1.87002337 0.0942976475 0.0211905763 1.87002337 0.107379615 0.0773931742 1.87002337 -0.0773931444 -0.107379556 1.87002337 -0.0211905167 0.0211905837 1.87002337 -0.107379496 0.0555641055 1.87002337 -0.0942975879 -0.0555640757 1.87002337 0.0942976475 -0.0773931742 1.87002337 0.0773932338 -0.0942975879 1.87002337 -0.0555640459 0.0773931742 1.87002337 0.077393204 -0.0773931742 1.87002337 -0.0773931444 -0.0555640757 1.87002337 -0.0942975879 -0.0211905465 1.87002337 0.107379615 0.0942976475 1.87002337 0.0555641353 -0.0211905539 1.87002337 -0.107379496 0.107379556 1.87002337 0.0211906135 0.247760355 0 -0.651004314 0.0486816019 1.87002337 -0.0486815758 0.0593148023 1.87002337 -0.0349507034 -0.0675435737 1.87002337 0.0133292768 -0.0675435737 1.87002337 -0.0133291716 0.0133292191 1.87002337 -0.0675434992 0.0349507481 1.87002337 -0.0593147576 -0.034950763 1.87002337 0.0593148395 -0.0486816354 1.87002337 0.0486816764 -0.0593147948 1.87002337 -0.0349507034 0.0486816019 1.87002337 0.0486816578 0.0349507481 1.87002337 0.0593148395 -0.0486816354 1.87002337 -0.0486815758 -0.034950763 1.87002337 -0.0593147576 -0.0133292293 1.87002337 0.0675436184 0.0593148023 1.87002337 0.034950804 -0.013329234 1.87002337 -0.0675434992 0.0675435439 1.87002337 0.0133292768 0.0133292144 1.87002337 0.0675436184 0.0675435439 1.87002337 -0.0133291669 -0.0593147948 1.87002337 0.034950804 -0.0675435737 1.87002337 -0.0133291716 -0.0593147948 1.87002337 -0.0349507034 0.0486816019 1.87002337 0.0486816578 0.0349507481 1.87002337 0.0593148395 -0.0486816354 1.87002337 -0.0486815758 -0.034950763 1.87002337 -0.0593147576 0.0349507481 1.87002337 -0.0593147576 0.0486816019 1.87002337 -0.0486815758 -0.0133292293 1.87002337 0.0675436184 -0.034950763 1.87002337 0.0593148395 0.0593148023 1.87002337 0.034950804 -0.013329234 1.87002337 -0.0675434992 0.0675435439 1.87002337 0.0133292768 0.0133292144 1.87002337 0.0675436184 0.0675435439 1.87002337 -0.0133291669 -0.0486816354 1.87002337 0.0486816764 -0.0593147948 1.87002337 0.034950804 0.0133292191 1.87002337 -0.0675434992 0.0593148023 1.87002337 -0.0349507034 -0.0675435737 1.87002337 0.0133292768 -0.0593147948 1.83854187 0.034950804 -0.0486816354 1.83854187 0.0486816764 -0.0486816354 0.687434912 0.0486816764 -0.0593147948 0.687434912 0.034950804 0.0133292191 1.83854187 -0.0675434992 -0.013329234 1.83854187 -0.0675434992 -0.013329234 0.687434912 -0.0675434992 0.0133292191 0.687434912 -0.0675434992 0.0675435439 1.83854187 -0.0133291669 0.0593148023 1.83854187 -0.0349507034 0.0593148023 0.687434912 -0.0349507034 0.0675435439 0.687434912 -0.0133291669 -0.0675435737 1.83854187 0.0133292768 -0.0675435737 0.687434912 0.0133292768 0.0133292144 1.83854187 0.0675436184 0.0349507481 1.83854187 0.0593148395 0.0349507481 0.687434912 0.0593148395 0.0133292144 0.687434912 0.0675436184 0.0486816019 1.83854187 -0.0486815758 0.0486816019 0.687434912 -0.0486815758 -0.0675435737 1.83854187 -0.0133291716 -0.0675435737 0.687434912 -0.0133291716 0.0349507481 1.83854187 -0.0593147576 0.0349507481 0.687434912 -0.0593147576 -0.034950763 1.83854187 0.0593148395 -0.034950763 0.687434912 0.0593148395 -0.0593147948 1.83854187 -0.0349507034 -0.0593147948 0.687434912 -0.0349507034 0.0486816019 1.83854187 0.0486816578 0.0486816019 0.687434912 0.0486816578 -0.034950763 1.83854187 -0.0593147576 -0.0486816354 1.83854187 -0.0486815758 -0.0486816354 0.687434912 -0.0486815758 -0.034950763 0.687434912 -0.0593147576 -0.0133292293 1.83854187 0.0675436184 -0.0133292293 0.687434912 0.0675436184 0.0593148023 1.83854187 0.034950804 0.0593148023 0.687434912 0.034950804 0.0675435439 1.83854187 0.0133292768 0.0675435439 0.687434912 0.0133292768 0.346589297 0.0748072863 0.588195503 0.482751548 0.0748072863 0.482751489 -0.588195562 0.0748072863 -0.346589386 -0.669796109 0.0748072863 -0.132179335 -0.482751608 0.0748072863 0.482751548 -0.346589297 0.0748072863 0.588195562 0.346589297 0.0748072863 -0.588195562 0.13217935 0.0748072863 -0.669796109 -0.669796109 0.0748072863 0.13217932 0.588195562 0.0748072863 -0.346589297 0.482751548 0.0748072863 -0.482751608 0.13217932 0.0748072863 0.66979599 -0.588195562 0.0748072863 0.346589297 0.66979599 0.0748072863 -0.132179305 -0.13217935 0.0748072863 -0.669796109 0.66979599 0.0748072863 0.13217932 -0.13217929 0.0748072863 0.66979599 0.588195503 0.0748072863 0.346589267 -0.346589357 0.0748072863 -0.588195622 -0.482751667 0.0748072863 -0.482751667 1 -0.17716822 0.714285731 1 -0.17716822 0.428571433 -1 -0.17716822 -1 -1 -0.17716822 -0.714285731 1 -0.17716822 0.142857134 -1 -0.17716822 -0.428571433 1 -0.17716822 -0.142857134 -1 -0.17716822 -0.142857134 1 -0.17716822 -0.428571433 -1 -0.17716822 0.142857134 1 -0.17716822 -0.714285731 -1 -0.17716822 0.428571433 1 -0.17716822 -1 0.714285731 -0.17716822 -1 -1 -0.17716822 0.714285731 0.428571433 -0.17716822 -1 -1 -0.17716822 1 -0.714285731 -0.17716822 1 0.142857134 -0.17716822 -1 -0.428571433 -0.17716822 1 -0.142857134 -0.17716822 -1 -0.142857134 -0.17716822 1 -0.428571433 -0.17716822 -1 0.142857134 -0.17716822 1 -0.714285731 -0.17716822 -1 0.428571433 -0.17716822 1 0.714285731 -0.17716822 1 1 -0.17716822 1 </float_array>
          <technique_common>
            <accessor count="277" offset="0" source="#meshesQ0S-positions-array" stride="3">
              <param name="X" type="float" />
              <param name="Y" type="float" />
              <param name="Z" type="float" />
            </accessor>
          </technique_common>
        </source>
        <source id="meshesQ0S-normals" name="meshesQ0S-normals">
          <float_array id="meshesQ0S-normals-array" count="831"> 0 1 0 0.707106829 0.707106829 0 0.577350318 0.577350318 -0.577350318 0 0.707106829 -0.707106829 -0.707106829 0.707106829 0 0 1 0 0 0.707106829 -0.707106829 -0.577350318 0.577350318 -0.577350318 0 1 0 0 0.707106829 -0.707106829 0 1 0 0 0.707106829 -0.707106829 0 1 0 0 0.707106829 -0.707106829 0 1 0 0 0.707106829 -0.707106829 -0.577350318 0.577350318 0.577350318 0 0.707106829 0.707106829 0 1 0 -0.707106829 0.707106829 0 0 1 0 -0.707106829 0.707106829 0 0 1 0 -0.707106829 0.707106829 0 0 1 0 -0.707106829 0.707106829 0 0 1 0 -0.707106829 0.707106829 0 0 0.707106829 0.707106829 0 1 0 0 0.707106829 0.707106829 0 1 0 0 0.707106829 0.707106829 0 1 0 0 0.707106829 0.707106829 0 1 0 0 0.707106829 0.707106829 0 1 0 0.577350318 0.577350318 0.577350318 0.707106829 0.707106829 0 0.707106829 0.707106829 0 0 1 0 0.707106829 0.707106829 0 0 1 0 0.707106829 0.707106829 0 0 1 0 0.707106829 0.707106829 0 0 1 0 0 1 0 0 1 0 0 1 0 0 1 0 0 1 0 0 1 0 0 1 0 0 1 0 0 1 0 0 1 0 0 1 0 0 1 0 0 1 0 0 1 0 0 1 0 0 1 0 0 1 0 0 1 0 0 1 0 0 1 0 0.0667003393 0.929904759 0.361701846 -0.0667003393 0.929904759 0.361701846 0.361701846 0.929904759 -0.0667003393 0.361701846 0.929904759 0.0667003393 -0.26380083 0.92780292 0.26380083 -0.323589265 0.928569257 0.181793973 -0.0667003393 0.929904759 -0.361701846 0.0667003393 0.929904759 -0.361701846 0.323589265 0.928569257 -0.181793973 -0.361701846 0.929904759 0.0667003393 0.181793988 0.928569376 0.323589295 0.26380083 0.92780292 -0.26380083 -0.361701846 0.929904759 -0.0667003393 0.181793988 0.928569376 -0.323589295 -0.181793988 0.928569376 0.323589295 -0.323589265 0.928569257 -0.181793973 0.26380083 0.92780292 0.26380083 -0.26380083 0.92780292 -0.26380083 -0.181793988 0.928569376 -0.323589295 0.323589265 0.928569257 0.181793973 -0.466110557 0.304106891 -0.830818832 -0.673596144 0.304198265 -0.673596144 -0.420586556 0.803874314 -0.420586556 -0.290890068 0.803572595 -0.519282281 -0.830818832 0.304106891 -0.466110557 -0.519282281 0.803572595 -0.290890068 0.673596144 0.304198265 -0.673596144 0.466110557 0.304106891 -0.830818832 0.290890068 0.803572595 -0.519282281 0.420586556 0.803874314 -0.420586556 -0.466110557 0.304106891 0.830818832 -0.172202393 0.304204226 0.936913073 -0.107400686 0.803305149 0.585803747 -0.290890068 0.803572595 0.519282281 0.673596144 0.304198265 0.673596144 0.830818832 0.304106891 0.466110557 0.519282281 0.803572595 0.290890068 0.420586556 0.803874314 0.420586556 -0.172202393 0.304204226 -0.936913073 -0.107400686 0.803305149 -0.585803747 0.936913073 0.304204226 0.172202393 0.585803747 0.803305149 0.107400686 0.172202393 0.304204226 0.936913073 0.107400686 0.803305149 0.585803747 0.936913073 0.304204226 -0.172202393 0.585803747 0.803305149 -0.107400686 -0.830818832 0.304106891 0.466110557 -0.673596144 0.304198265 0.673596144 -0.420586556 0.803874314 0.420586556 -0.519282281 0.803572595 0.290890068 0.172202393 0.304204226 -0.936913073 0.107400686 0.803305149 -0.585803747 0.830818832 0.304106891 -0.466110557 0.519282281 0.803572595 -0.290890068 -0.936913073 0.304204226 0.172202393 -0.585803747 0.803305149 0.107400686 0.466110557 0.304106891 0.830818832 0.290890068 0.803572595 0.519282281 -0.936913073 0.304204226 -0.172202393 -0.585803747 0.803305149 -0.107400686 0 1 0 0 1 0 0 1 0 0 1 0 0 1 0 0 1 0 0 1 0 0 1 0 0 1 0 0 1 0 0 1 0 0 1 0 0 1 0 0 1 0 0 1 0 0 1 0 0 1 0 0 1 0 0 1 0 0 1 0 0 1 0 0 1 0 0 1 0 0 1 0 0 1 0 0 1 0 0 1 0 0 1 0 0 1 0 0 1 0 0 1 0 0 1 0 0 1 0 0 1 0 0 1 0 0 1 0 0 1 0 0 1 0 0 1 0 0 1 0 0 1 0 0.6896016 0.713001668 0.126800299 0.613280773 0.710977733 0.34408921 -0.49800846 0.709912062 -0.49800846 -0.34408921 0.710977733 -0.613280773 0.49800846 0.709912062 0.49800846 0.34408921 0.710977733 0.613280773 -0.34408921 0.710977733 0.613280773 -0.49800846 0.709912062 0.49800846 0.126800299 0.713001668 -0.6896016 0.34408921 0.710977733 -0.613280773 -0.613280773 0.710977733 -0.34408921 0.126800299 0.713001668 0.6896016 -0.6896016 0.713001668 -0.126800299 -0.126800299 0.713001668 -0.6896016 -0.6896016 0.713001668 0.126800299 0.49800846 0.709912062 -0.49800846 0.613280773 0.710977733 -0.34408921 -0.126800299 0.713001668 0.6896016 -0.613280773 0.710977733 0.34408921 0.6896016 0.713001668 -0.126800299 0.872111797 0 -0.489306629 0.707106829 0 -0.707106829 0.707106829 0 -0.707106829 0.872111797 0 -0.489306629 -0.180803537 0 0.983519256 0.180803537 0 0.983519256 0.180803537 0 0.983519256 -0.180803537 0 0.983519256 -0.983519256 0 0.180803537 -0.872111797 0 0.489306629 -0.872111797 0 0.489306629 -0.983519256 0 0.180803537 0.983519256 0 -0.180803537 0.983519256 0 -0.180803537 -0.180803537 0 -0.983519256 -0.489306629 0 -0.872111797 -0.489306629 0 -0.872111797 -0.180803537 0 -0.983519256 -0.707106829 0 0.707106829 -0.707106829 0 0.707106829 0.983519256 0 0.180803537 0.983519256 0 0.180803537 -0.489306629 0 0.872111797 -0.489306629 0 0.872111797 0.489306629 0 -0.872111797 0.489306629 0 -0.872111797 0.872111797 0 0.489306629 0.872111797 0 0.489306629 -0.707106829 0 -0.707106829 -0.707106829 0 -0.707106829 0.489306629 0 0.872111797 0.707106829 0 0.707106829 0.707106829 0 0.707106829 0.489306629 0 0.872111797 0.180803537 0 -0.983519256 0.180803537 0 -0.983519256 -0.872111797 0 -0.489306629 -0.872111797 0 -0.489306629 -0.983519256 0 -0.180803537 -0.983519256 0 -0.180803537 0.466110557 0.304106891 0.830818832 0.673596144 0.304198265 0.673596144 -0.830818832 0.304106891 -0.466110557 -0.936913073 0.304204226 -0.172202393 -0.673596144 0.304198265 0.673596144 -0.466110557 0.304106891 0.830818832 0.466110557 0.304106891 -0.830818832 0.172202393 0.304204226 -0.936913073 -0.936913073 0.304204226 0.172202393 0.830818832 0.304106891 -0.466110557 0.673596144 0.304198265 -0.673596144 0.172202393 0.304204226 0.936913073 -0.830818832 0.304106891 0.466110557 0.936913073 0.304204226 -0.172202393 -0.172202393 0.304204226 -0.936913073 0.936913073 0.304204226 0.172202393 -0.172202393 0.304204226 0.936913073 0.830818832 0.304106891 0.466110557 -0.466110557 0.304106891 -0.830818832 -0.673596144 0.304198265 -0.673596144 1 0 0 1 0 0 -0.707106829 0 -0.707106829 -1 0 0 1 0 0 -1 0 0 1 0 0 -1 0 0 1 0 0 -1 0 0 1 0 0 -1 0 0 0.707106829 0 -0.707106829 0 0 -1 -1 0 0 0 0 -1 -0.707106829 0 0.707106829 0 0 1 0 0 -1 0 0 1 0 0 -1 0 0 1 0 0 -1 0 0 1 0 0 -1 0 0 1 0 0 1 0.707106829 0 0.707106829 </float_array>
          <technique_common>
            <accessor count="277" offset="0" source="#meshesQ0S-normals-array" stride="3">
              <param name="X" type="float" />
              <param name="Y" type="float" />
              <param name="Z" type="float" />
            </accessor>
          </technique_common>
        </source>
        <source id="meshesQ0S-tex0" name="meshesQ0S-tex0">
          <float_array id="meshesQ0S-tex0-array" count="554"> 0.857142806 0.857142866 1 0.857142866 1 1 0.857142866 1 0 0.857142866 0.142857149 0.857142866 0.142857149 1 0 1 0.285714298 0.857142866 0.285714298 1 0.428571463 0.857142866 0.428571463 1 0.571428597 0.857142866 0.571428597 1 0.714285731 0.857142866 0.714285731 1 0 0 0.142857149 0 0.142857149 0.142857134 0 0.142857134 0.142857149 0.285714269 0 0.285714269 0.142857149 0.428571463 0 0.428571463 0.142857149 0.571428597 0 0.571428597 0.142857149 0.714285731 0 0.714285731 0.285714298 0 0.285714298 0.142857134 0.428571463 0 0.428571463 0.142857134 0.571428597 0 0.571428597 0.142857134 0.714285731 0 0.714285731 0.142857134 0.857142866 0 0.857142866 0.142857134 1 0 1 0.142857134 1 0.285714269 0.857142866 0.285714269 1 0.428571463 0.857142866 0.428571463 1 0.571428597 0.857142866 0.571428597 1 0.714285731 0.857142806 0.714285731 0.239711374 0.239711404 0.239711374 0.285714269 0.239711374 0.428571463 0.239711374 0.571428597 0.239711374 0.714285731 0.239711374 0.760288656 0.760288715 0.285714328 0.760288715 0.239711404 0.760288715 0.428571463 0.760288715 0.571428657 0.760288656 0.714285731 0.760288715 0.760288656 0.285714328 0.239711404 0.285714298 0.760288656 0.428571463 0.239711404 0.428571463 0.760288656 0.571428657 0.239711404 0.571428597 0.760288656 0.714285731 0.239711404 0.714285731 0.760288656 0.571428657 0.239711404 0.428571463 0.239711404 0.760288715 0.571428657 0.760288715 0.428571463 0.239711374 0.239711404 0.239711374 0.285714269 0.428571463 0.760288656 0.571428597 0.760288656 0.760288656 0.714285731 0.239711374 0.428571463 0.714285731 0.239711404 0.760288715 0.760288656 0.239711374 0.571428597 0.714285731 0.760288656 0.285714328 0.239711404 0.239711374 0.714285731 0.760288715 0.239711404 0.239711374 0.760288656 0.285714298 0.760288656 0.760288715 0.285714328 0.285714328 0.760288715 0.239711374 0.760288715 0.239711374 0.760288656 0.285714298 0.760288656 0.239711344 0.714285672 0.239711374 0.714285731 0.760288715 0.760288656 0.714285791 0.760288715 0.714285731 0.760288656 0.760288715 0.760288656 0.285714328 0.239711404 0.428571433 0.239711344 0.428571463 0.239711404 0.285714328 0.239711404 0.760288715 0.239711344 0.760288715 0.285714328 0.760288715 0.285714328 0.760288715 0.239711404 0.428571463 0.760288715 0.428571463 0.760288656 0.760288715 0.428571463 0.760288715 0.428571463 0.571428716 0.239711404 0.571428657 0.239711404 0.760288715 0.571428657 0.760288715 0.571428657 0.239711374 0.285714328 0.239711374 0.239711404 0.239711374 0.239711404 0.239711374 0.285714269 0.571428597 0.760288656 0.571428597 0.760288656 0.760288715 0.714285731 0.760288656 0.714285731 0.239711344 0.428571403 0.239711374 0.428571463 0.714285731 0.239711404 0.714285731 0.239711404 0.239711374 0.571428657 0.239711374 0.571428597 0.760288656 0.714285731 0.760288715 0.571428657 0.239711374 0.285714269 0.239711374 0.428571463 0.714285731 0.239711404 0.571428657 0.239711404 0.760288715 0.760288656 0.239711374 0.571428597 0.571428597 0.760288656 0.714285731 0.760288656 0.285714328 0.239711404 0.239711374 0.239711404 0.239711374 0.714285731 0.760288715 0.239711404 0.239711374 0.760288656 0.285714298 0.760288656 0.428571463 0.239711404 0.760288715 0.285714328 0.428571463 0.760288656 0.760288715 0.428571463 0.642857194 0.760288656 0.760288715 0.760288656 0.760288656 0.714285731 0.239711374 0.428571463 0.239711374 0.571428597 0.571428597 0.760288656 0.714285731 0.760288656 0.285714328 0.239711404 0.239711374 0.239711404 0.239711374 0.714285731 0.760288715 0.239711404 0.714285731 0.239711404 0.239711374 0.760288656 0.285714298 0.760288656 0.428571463 0.239711404 0.760288715 0.285714328 0.428571463 0.760288656 0.760288715 0.428571463 0.571428657 0.239711404 0.760288715 0.571428657 0.239711374 0.285714269 0.239711374 0.571428597 0.239711374 0.714285731 0.760288715 0.239711404 0.714285731 0.239711404 0.239711374 0.760288656 0.285714298 0.760288656 0.714285731 0.760288656 0.760288715 0.760288656 0.428571463 0.239711404 0.285714328 0.239711404 0.760288715 0.285714328 0.428571463 0.760288656 0.760288715 0.428571463 0.571428657 0.239711404 0.760288715 0.571428657 0.239711374 0.239711404 0.239711374 0.285714269 0.571428597 0.760288656 0.760288656 0.714285731 0.239711374 0.428571463 0.239711374 0.285714269 0.239711374 0.239711404 0.239711374 0.239711404 0.239711374 0.285714269 0.571428597 0.760288656 0.428571463 0.760288656 0.428571463 0.760288656 0.571428597 0.760288656 0.760288715 0.571428657 0.760288656 0.714285731 0.760288656 0.714285731 0.760288715 0.571428657 0.239711374 0.428571463 0.239711374 0.428571463 0.571428657 0.239711404 0.714285731 0.239711404 0.714285731 0.239711404 0.571428657 0.239711404 0.760288715 0.760288656 0.760288715 0.760288656 0.239711374 0.571428597 0.239711374 0.571428597 0.714285731 0.760288656 0.714285731 0.760288656 0.285714328 0.239711404 0.285714328 0.239711404 0.239711374 0.714285731 0.239711374 0.714285731 0.760288715 0.239711404 0.760288715 0.239711404 0.285714298 0.760288656 0.239711374 0.760288656 0.239711374 0.760288656 0.285714298 0.760288656 0.428571463 0.239711404 0.428571463 0.239711404 0.760288715 0.285714328 0.760288715 0.285714328 0.760288715 0.428571463 0.760288715 0.428571463 0.714285731 0.239711404 0.760288715 0.239711404 0.239711374 0.714285731 0.239711374 0.571428657 0.239711374 0.239711404 0.285714328 0.239711404 0.714285791 0.760288715 0.571428597 0.760288596 0.239711374 0.428571463 0.760288715 0.714285851 0.760288715 0.760288715 0.571428657 0.239711344 0.239711374 0.285714328 0.760288656 0.571428597 0.428571403 0.760288596 0.760288775 0.428571463 0.428571433 0.239711344 0.760288715 0.285714328 0.285714328 0.760288596 0.239711374 0.760288715 1 0.142857134 1 0.285714269 0 1 0 0.857142866 1 0.428571463 0 0.714285731 1 0.571428597 0 0.571428597 1 0.714285731 0 0.428571463 1 0.857142866 0 0.285714269 1 1 0.857142866 1 0 0.142857134 0.714285731 1 0 0 0.142857149 0 0.571428597 1 0.285714298 0 0.428571463 1 0.428571463 0 0.285714298 1 0.571428597 0 0.142857149 1 0.714285731 0 0.857142866 0 1 0 </float_array>
          <technique_common>
            <accessor count="277" offset="0" source="#meshesQ0S-tex0-array" stride="2">
              <param name="S" type="float" />
              <param name="T" type="float" />
            </accessor>
          </technique_common>
        </source>
        <vertices id="meshesQ0S-vertices">
          <input semantic="POSITION" source="#meshesQ0S-positions" />
        </vertices>
        <polylist count="785" material="defaultMaterial">
          <input offset="0" semantic="VERTEX" source="#meshesQ0S-vertices" />
          <input offset="0" semantic="NORMAL" source="#meshesQ0S-normals" />
          <input offset="0" semantic="TEXCOORD" source="#meshesQ0S-tex0" set="0" />
          <vcount>3 3 3 3 3 3 3 3 3 3 3 3 3 3 3 3 3 3 3 3 3 3 3 3 3 3 3 3 3 3 3 3 3 3 3 3 3 3 3 3 3 3 3 3 3 3 3 3 3 3 3 3 3 3 3 3 3 3 3 3 3 3 3 3 3 3 3 3 3 3 3 3 3 3 3 3 3 3 3 3 3 3 3 3 3 3 3 3 3 3 3 3 3 3 3 3 3 3 3 3 3 3 3 3 3 3 3 3 3 3 3 3 3 3 3 3 3 3 3 3 3 3 3 3 3 3 3 3 3 3 3 3 3 3 3 3 3 3 3 3 3 3 3 3 3 3 3 3 3 3 3 3 3 3 3 3 3 3 3 3 3 3 3 3 3 3 3 3 3 3 3 3 3 3 3 3 3 3 3 3 3 3 3 3 3 3 3 3 3 3 3 3 3 3 3 3 3 3 3 3 3 3 3 3 3 3 3 3 3 3 3 3 3 3 3 3 3 3 3 3 3 3 3 3 3 3 3 3 3 3 3 3 3 3 3 3 3 3 3 3 3 3 3 3 3 3 3 3 3 3 3 3 3 3 3 3 3 3 3 3 3 3 3 3 3 3 3 3 3 3 3 3 3 3 3 3 3 3 3 3 3 3 3 3 3 3 3 3 3 3 3 3 3 3 3 3 3 3 3 3 3 3 3 3 3 3 3 3 3 3 3 3 3 3 3 3 3 3 3 3 3 3 3 3 3 3 3 3 3 3 3 3 3 3 3 3 3 3 3 3 3 3 3 3 3 3 3 3 3 3 3 3 3 3 3 3 3 3 3 3 3 3 3 3 3 3 3 3 3 3 3 3 3 3 3 3 3 3 3 3 3 3 3 3 3 3 3 3 3 3 3 3 3 3 3 3 3 3 3 3 3 3 3 3 3 3 3 3 3 3 3 3 3 3 3 3 3 3 3 3 3 3 3 3 3 3 3 3 3 3 3 3 3 3 3 3 3 3 3 3 3 3 3 3 3 3 3 3 3 3 3 3 3 3 3 3 3 3 3 3 3 3 3 3 3 3 3 3 3 3 3 3 3 3 3 3 3 3 3 3 3 3 3 3 3 3 3 3 3 3 3 3 3 3 3 3 3 3 3 3 3 3 3 3 3 3 3 3 3 3 3 3 3 3 3 3 3 3 3 3 3 3 3 3 3 3 3 3 3 3 3 3 3 3 3 3 3 3 3 3 3 3 3 3 3 3 3 3 3 3 3 3 3 3 3 3 3 3 3 3 3 3 3 3 3 3 3 3 3 3 3 3 3 3 3 3 3 3 3 3 3 3 3 3 3 3 3 3 3 3 3 3 3 3 3 3 3 3 3 3 3 3 3 3 3 3 3 3 3 3 3 3 3 3 3 3 3 3 3 3 3 3 3 3 3 3 3 3 3 3 3 3 3 3 3 3 3 3 3 3 3 3 3 3 3 3 3 3 3 3 3 3 3 3 3 3 3 3 3 3 3 3 3 3 3 3 3 3 3 3 3 3 3 3 3 3 3 3 3 3 3 3 3 3 3 3 3 3 3 3 3 3 3 3 3 3 3 3 3 3 3 3 3 3 3 3 3 3 3 3 3 3 3 3 3 3 3 3 3 3 3 3 3 3 3 3 3 3 3 3 3 3 3 3 3 3 3 3 3 3 3 3 3 3 3 3 3 3 3 3 3 3 3 3 3 3 3 3 3 3 3 3 3 3 3 3 3 3 3 3 3 3 3 3 3 3 3 3 3 3 3 3 3 3 3 </vcount>
          <p>0 1 2 0 2 3 4 5 6 4 6 7 5 8 9 5 9 6 8 10 11 8 11 9 10 12 13 10 13 11 12 14 15 12 15 13 14 0 3 14 3 15 16 17 18 16 18 19 19 18 20 19 20 21 21 20 22 21 22 23 23 22 24 23 24 25 25 24 26 25 26 27 27 26 5 27 5 4 17 28 29 17 29 18 28 30 31 28 31 29 30 32 33 30 33 31 32 34 35 32 35 33 34 36 37 34 37 35 36 38 39 36 39 37 37 39 40 37 40 41 41 40 42 41 42 43 43 42 44 43 44 45 45 44 46 45 46 47 47 46 1 47 1 0 48 49 20 48 20 18 49 50 22 49 22 20 50 51 24 50 24 22 51 52 26 51 26 24 52 53 5 52 5 26 54 55 37 54 37 41 56 54 41 56 41 43 57 56 43 57 43 45 58 57 45 58 45 47 59 58 47 59 47 0 60 48 18 60 18 29 53 61 8 53 8 5 62 60 29 62 29 31 61 63 10 61 10 8 64 62 31 64 31 33 63 65 12 63 12 10 66 64 33 66 33 35 65 67 14 65 14 12 55 66 35 55 35 37 67 59 0 67 0 14 62 64 68 62 68 69 56 57 70 56 70 71 49 48 72 49 72 73 65 63 74 65 74 75 57 58 76 57 76 70 50 49 73 50 73 77 64 66 78 64 78 68 58 59 79 58 79 76 51 50 77 51 77 80 67 65 75 67 75 81 48 60 82 48 82 72 52 51 80 52 80 83 66 55 84 66 84 78 61 53 85 61 85 86 53 52 83 53 83 85 59 67 81 59 81 79 60 62 69 60 69 82 55 54 87 55 87 84 63 61 86 63 86 74 54 56 71 54 71 87 88 89 90 88 90 91 89 92 93 89 93 90 94 95 96 94 96 97 98 99 100 98 100 101 102 103 104 102 104 105 106 88 91 106 91 107 103 108 109 103 109 104 99 110 111 99 111 100 108 112 113 108 113 109 114 115 116 114 116 117 118 106 107 118 107 119 112 120 121 112 121 113 122 114 117 122 117 123 110 124 125 110 125 111 120 94 97 120 97 121 126 122 123 126 123 127 95 118 119 95 119 96 115 98 101 115 101 116 92 126 127 92 127 93 124 102 105 124 105 125 113 121 128 113 128 129 123 117 130 123 130 131 111 125 132 111 132 133 121 97 134 121 134 128 127 123 131 127 131 135 96 119 136 96 136 137 116 101 138 116 138 139 93 127 135 93 135 140 125 105 141 125 141 132 91 90 142 91 142 143 90 93 140 90 140 142 97 96 137 97 137 134 101 100 144 101 144 138 105 104 145 105 145 141 107 91 143 107 143 146 104 109 147 104 147 145 100 111 133 100 133 144 109 113 129 109 129 147 117 116 139 117 139 130 119 107 146 119 146 136 141 145 145 141 145 141 146 143 143 146 143 146 145 147 147 145 147 145 144 133 133 144 133 144 147 129 129 147 129 147 130 139 139 130 139 130 136 146 146 136 146 136 129 128 128 129 128 129 131 130 130 131 130 131 133 132 132 133 132 133 128 134 134 128 134 128 135 131 131 135 131 135 137 136 136 137 136 137 139 138 138 139 138 139 140 135 135 140 135 140 132 141 141 132 141 132 143 142 142 143 142 143 142 140 140 142 140 142 134 137 137 134 137 134 138 144 144 138 144 138 135 131 131 135 131 135 137 136 136 137 136 137 139 138 138 139 138 139 140 135 135 140 135 140 132 141 141 132 141 132 143 142 142 143 142 143 142 140 140 142 140 142 134 137 137 134 137 134 138 144 144 138 144 138 141 145 145 141 145 141 146 143 143 146 143 146 145 147 147 145 147 145 144 133 133 144 133 144 147 129 129 147 129 147 130 139 139 130 139 130 136 146 146 136 146 136 129 128 128 129 128 129 131 130 130 131 130 131 133 132 132 133 132 133 128 134 134 128 134 128 144 133 133 144 133 144 147 129 129 147 129 147 130 139 139 130 139 130 136 146 146 136 146 136 129 128 128 129 128 129 131 130 130 131 130 131 133 132 132 133 132 133 128 134 134 128 134 128 135 131 131 135 131 135 137 136 136 137 136 137 139 138 138 139 138 139 140 135 135 140 135 140 132 141 141 132 141 132 143 142 142 143 142 143 142 140 140 142 140 142 134 137 137 134 137 134 138 144 144 138 144 138 141 145 145 141 145 141 146 143 143 146 143 146 145 147 147 145 147 145 132 141 141 132 141 132 143 142 142 143 142 143 142 140 140 142 140 142 134 137 137 134 137 134 138 144 144 138 144 138 141 145 145 141 145 141 146 143 143 146 143 146 145 147 147 145 147 145 144 133 133 144 133 144 147 129 129 147 129 147 130 139 139 130 139 130 136 146 146 136 146 136 129 128 128 129 128 129 131 130 130 131 130 131 133 132 132 133 132 133 128 134 134 128 134 128 135 131 131 135 131 135 137 136 136 137 136 137 139 138 138 139 138 139 140 135 135 140 135 140 136 146 146 136 146 136 129 128 128 129 128 129 131 130 130 131 130 131 133 132 132 133 132 133 128 134 134 128 134 128 135 131 131 135 131 135 137 136 136 137 136 137 139 138 138 139 138 139 140 135 135 140 135 140 132 141 141 132 141 132 143 142 142 143 142 143 142 140 140 142 140 142 134 137 137 134 137 134 138 144 144 138 144 138 141 145 145 141 145 141 146 143 143 146 143 146 145 147 147 145 147 145 144 133 133 144 133 144 147 129 129 147 129 147 130 139 139 130 139 130 138 144 144 138 144 138 141 145 145 141 145 141 146 143 143 146 143 146 145 147 147 145 147 145 144 133 133 144 133 144 147 129 129 147 129 147 130 139 139 130 139 130 136 146 146 136 146 136 129 128 128 129 128 129 131 130 130 131 130 131 133 132 132 133 132 133 128 134 134 128 134 128 135 131 131 135 131 135 137 136 136 137 136 137 139 138 138 139 138 139 140 135 135 140 135 140 132 141 141 132 141 132 143 142 142 143 142 143 142 140 140 142 140 142 134 137 137 134 137 134 85 86 61 85 61 53 83 85 53 83 53 52 81 79 59 81 59 67 69 82 60 69 60 62 87 84 55 87 55 54 86 74 63 86 63 61 71 87 54 71 54 56 68 69 62 68 62 64 70 71 56 70 56 57 72 73 49 72 49 48 74 75 65 74 65 63 76 70 57 76 57 58 73 77 50 73 50 49 78 68 64 78 64 66 79 76 58 79 58 59 77 80 51 77 51 50 81 67 148 65 75 81 81 148 65 82 72 48 82 48 60 80 83 52 80 52 51 84 78 66 84 66 55 128 134 149 128 149 150 135 131 151 135 151 152 137 136 153 137 153 154 139 138 155 139 155 156 140 135 152 140 152 157 132 141 158 132 158 159 143 142 160 143 160 161 142 140 157 142 157 160 134 137 154 134 154 149 138 144 162 138 162 155 141 145 163 141 163 158 146 143 161 146 161 164 145 147 165 145 165 163 144 133 166 144 166 162 147 129 167 147 167 165 130 139 156 130 156 168 136 146 164 136 164 153 129 128 150 129 150 167 131 130 168 131 168 151 133 132 159 133 159 166 157 152 169 157 169 170 159 158 171 159 171 172 161 160 173 161 173 174 160 157 170 160 170 173 149 154 175 149 175 176 155 162 177 155 177 178 158 163 179 158 179 171 164 161 174 164 174 180 163 165 181 163 181 179 162 166 182 162 182 177 165 167 183 165 183 181 168 156 184 168 184 185 153 164 180 153 180 186 167 150 187 167 187 183 151 168 185 151 185 188 166 159 172 166 172 182 150 149 176 150 176 187 152 151 188 152 188 169 154 153 186 154 186 175 156 155 178 156 178 184 189 190 191 189 191 192 193 194 195 193 195 196 197 198 199 197 199 200 201 189 192 201 192 202 203 204 205 203 205 206 198 207 208 198 208 199 209 201 202 209 202 210 211 193 196 211 196 212 190 213 214 190 214 191 215 209 210 215 210 216 204 217 218 204 218 205 219 220 221 219 221 222 220 215 216 220 216 221 207 211 212 207 212 208 213 223 224 213 224 214 217 225 226 217 226 218 194 219 222 194 222 195 225 227 228 225 228 226 223 203 206 223 206 224 227 197 200 227 200 228 181 183 197 181 197 227 177 182 203 177 203 223 179 181 227 179 227 225 180 174 219 180 219 194 171 179 225 171 225 217 178 177 223 178 223 213 176 175 211 176 211 207 173 170 215 173 215 220 174 173 220 174 220 219 172 171 217 172 217 204 170 169 209 170 209 215 184 178 213 184 213 190 175 186 193 175 193 211 169 188 201 169 201 209 187 176 207 187 207 198 182 172 204 182 204 203 188 185 189 188 189 201 183 187 198 183 198 197 186 180 194 186 194 193 185 184 190 185 190 189 229 230 102 229 102 124 231 232 126 231 126 92 233 234 98 233 98 115 235 236 118 235 118 95 232 237 122 232 122 126 238 239 94 238 94 120 240 229 124 240 124 110 237 241 114 237 114 122 242 238 120 242 120 112 236 243 106 236 106 118 241 233 115 241 115 114 244 242 112 244 112 108 245 240 110 245 110 99 246 244 108 246 108 103 243 247 88 243 88 106 230 246 103 230 103 102 234 245 99 234 99 98 239 235 95 239 95 94 248 231 92 248 92 89 247 248 89 247 89 88 86 85 248 86 248 247 85 83 231 85 231 248 79 81 235 79 235 239 82 69 245 82 245 234 84 87 246 84 246 230 74 86 247 74 247 243 87 71 244 87 244 246 69 68 240 69 240 245 71 70 242 71 242 244 73 72 233 73 233 241 75 74 243 75 243 236 70 76 238 70 238 242 77 73 241 77 241 237 68 78 229 68 229 240 76 79 239 76 239 238 80 77 237 80 237 232 81 75 236 81 236 235 72 82 234 72 234 233 83 80 232 83 232 231 78 84 230 78 230 229 40 39 249 40 249 250 4 7 251 4 251 252 42 40 250 42 250 253 27 4 252 27 252 254 44 42 253 44 253 255 25 27 254 25 254 256 46 44 255 46 255 257 23 25 256 23 256 258 1 46 257 1 257 259 21 23 258 21 258 260 3 2 261 3 261 262 19 21 260 19 260 263 15 3 262 15 262 264 17 16 265 17 265 266 13 15 264 13 264 267 28 17 266 28 266 268 11 13 267 11 267 269 30 28 268 30 268 270 9 11 269 9 269 271 32 30 270 32 270 272 16 19 263 16 263 265 6 9 271 6 271 273 34 32 272 34 272 274 38 36 275 38 275 276 36 34 274 36 274 275 2 1 259 2 259 261 39 38 276 39 276 249 7 6 273 7 273 251 </p>
        </polylist>
      </mesh>
    </geometry>
  </library_geometries>
  <library_controllers>
  </library_controllers>
  <library_visual_scenes>
    <visual_scene id="Scene" name="Scene">
      <node id="Plane" name="Plane" type="NODE">
        <matrix sid="matrix">1 0 0 -0.228397429 0 1 0 0.710588515 0 0 1 -0.852082968 0 0 0 1</matrix>
        <instance_geometry url="#meshesQ0S">
          <bind_material>
            <technique_common>
              <instance_material symbol="defaultMaterial" target="#Material.001">
                <bind_vertex_input semantic="CHANNEL0" input_semantic="TEXCOORD" input_set="0"/>
              </instance_material>
            </technique_common>
          </bind_material>
        </instance_geometry>
      </node>
    </visual_scene>
  </library_visual_scenes>
  <scene>
    <instance_visual_scene url="#Scene" />
  </scene>
</COLLADA>
